<svg viewBox="0 0 512 512" xmlns="http://www.w3.org/2000/svg"><g id="Layer_2" data-name="Layer 2"><g id="Layer_copy_10" data-name="Layer copy 10"><g id="_54" data-name="54"><path d="m338.6 270.45h-145.76a7.59 7.59 0 1 0 0 15.17h145.76a7.59 7.59 0 0 0 0-15.17z"/><path d="m307.7 314.53h-84a7.59 7.59 0 0 0 0 15.17h84a7.59 7.59 0 0 0 0-15.17z"/><path d="m256 0c-141.38 0-256 114.62-256 256s114.62 256 256 256 256-114.62 256-256-114.62-256-256-256zm155 319.62c0 32.58-29.13 59.08-64.94 59.08h-223.17a21.88 21.88 0 0 1 -18.11-34.16l13.88-20.48a6.72 6.72 0 0 0 1.15-3.77v-127.91c0-32.58 29.14-59.08 64.94-59.08h161.31c35.81 0 64.94 26.5 64.94 59.08z"/><path d="m338.6 226.38h-145.76a7.59 7.59 0 1 0 0 15.17h145.76a7.59 7.59 0 0 0 0-15.17z"/><path d="m338.6 182.3h-145.76a7.59 7.59 0 1 0 0 15.17h145.76a7.59 7.59 0 0 0 0-15.17z"/></g></g></g></svg>