<svg clip-rule="evenodd" fill-rule="evenodd" height="512" image-rendering="optimizeQuality" shape-rendering="geometricPrecision" text-rendering="geometricPrecision" viewBox="0 0 512 512" width="512" xmlns="http://www.w3.org/2000/svg" xmlns:xodm="http://www.corel.com/coreldraw/odm/2003"><g id="Layer_x0020_1"><path d="m194.56 7.48 5.76 23.28c-22.66 5.57-44.34 14.54-64.32 26.6l-12.32-20.56c22.01-13.29 45.91-23.18 70.88-29.32zm117.12 23.28c22.66 5.57 44.34 14.54 64.32 26.6l12.4-20.56c-22.04-13.3-45.96-23.18-70.96-29.32zm-274.88 92.91c-13.29 22.01-23.18 45.91-29.32 70.87l23.28 5.76c5.57-22.65 14.54-44.34 26.6-64.31zm-10.2 97.55-23.72-3.6c-3.84 25.43-3.84 51.29 0 76.72l23.72-3.6c-3.47-22.99-3.47-46.53 0-69.52zm349.4 233.38c-19.95 12.05-41.61 21.02-64.24 26.6l5.76 23.28c24.94-6.15 48.81-16.03 70.8-29.32zm109.4-163.86 23.72 3.6c3.84-25.43 3.84-51.29 0-76.72l-23.72 3.6c3.47 22.99 3.47 46.53 0 69.52zm-4.16 20.92c-5.57 22.65-14.54 44.34-26.6 64.31l20.56 12.4c13.3-22.04 23.18-45.96 29.32-70.95zm-190.48 173.74c-23.04 3.47-46.48 3.47-69.52 0l-3.6 23.72c25.43 3.84 51.29 3.84 76.72 0zm152-91.79c-13.84 18.74-30.41 35.29-49.16 49.11l14.24 19.32c20.69-15.21 38.97-33.43 54.24-54.07zm-49.16-324.37c18.75 13.83 35.33 30.4 49.16 49.15l19.32-14.4c-15.22-20.63-33.45-38.85-54.08-54.07zm-324.36 49.15c13.83-18.75 30.41-35.32 49.16-49.15l-14.4-19.32c-20.63 15.22-38.86 33.44-54.08 54.07zm385.4 17.6c12.05 19.95 21.02 41.61 26.6 64.23l23.28-5.76c-6.15-24.93-16.04-48.8-29.32-70.79zm-233.4-109.39c23.04-3.47 46.48-3.47 69.52 0l3.6-23.72c-25.43-3.84-51.29-3.84-76.72 0zm-139.68 441.8-49.56 11.56 11.56-49.55-23.36-5.48-11.56 49.55c-4.05 17.3 11.54 32.89 28.84 28.84l49.52-11.36zm-56.36-64.87 23.36 5.44 8-34.36c-11.66-19.6-20.35-40.81-25.8-62.95l-23.28 5.76c5.22 21.2 13.15 41.65 23.6 60.83zm77.64 59.99 5.44 23.36 25.28-5.88c19.18 10.45 39.63 18.38 60.84 23.6l5.76-23.28c-22.1-5.51-43.26-14.26-62.8-25.96zm-28.81-308.09c-36.59 66.25-34.3 147.14 5.97 211.22l-20 85.31 85.32-19.99c74.84 47.13 171.29 41.78 240.47-13.33 69.17-55.1 95.92-147.92 66.7-231.39-59.29-169.3-292.26-187.89-378.46-31.82z" fill-rule="nonzero"/></g></svg>